<?xml version="1.0" standalone="no"?>
<!DOCTYPE svg PUBLIC "-//W3C//DTD SVG 20010904//EN"
 "http://www.w3.org/TR/2001/REC-SVG-20010904/DTD/svg10.dtd">
<svg version="1.0" xmlns="http://www.w3.org/2000/svg"
 width="500.000000pt" height="500.000000pt" viewBox="0 0 500.000000 500.000000"
 preserveAspectRatio="xMidYMid meet">
<metadata>
Created by potrace 1.14, written by Peter Selinger 2001-2017
</metadata>
<g transform="translate(0.000000,500.000000) scale(0.100000,-0.100000)"
fill="#000000" stroke="none">
<path d="M750 2135 l0 -1055 920 0 920 0 0 1055 0 1055 -920 0 -920 0 0 -1055z
m1260 769 c172 -82 253 -229 267 -485 17 -301 -90 -586 -290 -776 -137 -130
-244 -163 -531 -163 -166 0 -186 2 -195 18 -5 11 5 259 28 681 32 578 39 665
53 675 9 7 81 26 160 44 79 17 152 33 163 36 11 3 79 4 150 3 122 -2 134 -4
195 -33z"/>
<path d="M1870 2830 c0 -5 5 -10 11 -10 5 0 7 5 4 10 -3 6 -8 10 -11 10 -2 0
-4 -4 -4 -10z"/>
<path d="M2078 2623 c-24 -6 -23 -23 2 -23 11 0 20 7 20 15 0 8 -1 14 -2 14
-2 -1 -11 -3 -20 -6z"/>
<path d="M1703 2578 c-35 -6 -53 -14 -53 -24 0 -8 -5 -22 -11 -33 -8 -11 -8
-24 -3 -34 5 -9 3 -112 -6 -256 -14 -218 -17 -242 -35 -255 -19 -14 -19 -15
-2 -33 10 -11 17 -35 17 -56 0 -36 1 -37 28 -31 98 24 166 86 217 198 33 71
65 183 65 224 0 16 6 22 21 22 11 0 17 5 14 10 -4 6 -11 8 -16 5 -5 -4 -9 12
-9 35 0 23 -7 73 -16 113 -28 121 -65 142 -211 115z"/>
<path d="M1371 2534 c0 -11 3 -14 6 -6 3 7 2 16 -1 19 -3 4 -6 -2 -5 -13z"/>
<path d="M2010 2506 c0 -2 8 -10 18 -17 15 -13 16 -12 3 4 -13 16 -21 21 -21
13z"/>
<path d="M1361 2464 c0 -11 3 -14 6 -6 3 7 2 16 -1 19 -3 4 -6 -2 -5 -13z"/>
<path d="M1970 2336 c0 -9 7 -19 15 -23 23 -8 25 0 4 21 -17 18 -19 18 -19 2z"/>
<path d="M2070 2121 c0 -12 5 -21 10 -21 6 0 10 6 10 14 0 8 -4 18 -10 21 -5
3 -10 -3 -10 -14z"/>
<path d="M1398 1703 c7 -3 16 -2 19 1 4 3 -2 6 -13 5 -11 0 -14 -3 -6 -6z"/>
<path d="M1354 1654 c3 -9 6 -18 6 -20 0 -3 5 -2 10 1 16 10 12 35 -6 35 -11
0 -14 -5 -10 -16z"/>
<path d="M3367 2738 c-14 -35 -123 -315 -242 -623 -120 -308 -219 -563 -222
-567 -2 -5 83 -8 190 -8 l194 0 34 90 33 90 215 -2 215 -3 35 -87 34 -88 194
0 193 0 -21 53 c-12 28 -115 293 -229 587 -114 294 -216 554 -225 578 l-17 42
-178 0 -178 0 -25 -62z m272 -555 c35 -98 66 -184 68 -190 4 -10 -27 -13 -137
-13 -110 0 -141 3 -137 13 2 6 33 92 68 190 35 97 66 177 69 177 3 0 34 -80
69 -177z"/>
</g>
</svg>
